<svg width="66" height="100" viewBox="0 0 66 100" fill="none" xmlns="http://www.w3.org/2000/svg">
<rect x="46.3541" y="78.6459" width="5.20833" height="5.20833" rx="2.60417" fill="#659A6E"/>
<rect x="55.2084" y="89.5834" width="10.4167" height="10.4167" rx="5.20833" fill="#9A7265"/>
<rect x="24.4791" y="41.1459" width="15.625" height="15.625" rx="7.8125" fill="#9A7265"/>
<rect y="52.6041" width="10.4167" height="10.4167" rx="5.20833" fill="#659A6E"/>
<rect x="48.4375" y="52.6041" width="10.4167" height="10.4167" rx="5.20833" fill="#659A6E"/>
<rect x="51.5625" y="29.6875" width="5.20833" height="5.20833" rx="2.60417" fill="#4C7380"/>
<rect x="23.9584" y="27.0834" width="7.8125" height="7.8125" rx="3.90625" fill="#4C7380"/>
<rect x="6.77087" y="26.0416" width="5.20833" height="5.20833" rx="2.60417" fill="#659A6E"/>
<rect x="38.5416" y="9.375" width="7.8125" height="7.8125" rx="3.90625" fill="#9A7265"/>
<rect x="9.375" y="77.6041" width="5.20833" height="5.20833" rx="2.60417" fill="#4C7380"/>
<rect x="23.4375" y="70.8334" width="13.0208" height="13.0208" rx="6.51042" fill="#4C7380"/>
<rect x="16.9271" width="13.0208" height="13.0208" rx="6.51042" fill="#659A6E"/>
</svg>
