<svg width="66" height="100" viewBox="0 0 66 100" fill="none" xmlns="http://www.w3.org/2000/svg">
<rect width="5.20833" height="5.20833" rx="2.60417" transform="matrix(-1 0 0 1 19.2709 78.6459)" fill="#659A6E"/>
<rect width="10.4167" height="10.4167" rx="5.20833" transform="matrix(-1 0 0 1 10.4166 89.5834)" fill="#9A7265"/>
<rect width="15.625" height="15.625" rx="7.8125" transform="matrix(-1 0 0 1 41.1459 41.1459)" fill="#9A7265"/>
<rect width="10.4167" height="10.4167" rx="5.20833" transform="matrix(-1 0 0 1 65.625 52.6041)" fill="#659A6E"/>
<rect width="10.4167" height="10.4167" rx="5.20833" transform="matrix(-1 0 0 1 17.1875 52.6041)" fill="#659A6E"/>
<rect width="5.20833" height="5.20833" rx="2.60417" transform="matrix(-1 0 0 1 14.0625 29.6875)" fill="#4C7380"/>
<rect width="7.8125" height="7.8125" rx="3.90625" transform="matrix(-1 0 0 1 41.6666 27.0834)" fill="#4C7380"/>
<rect width="5.20833" height="5.20833" rx="2.60417" transform="matrix(-1 0 0 1 58.8541 26.0416)" fill="#659A6E"/>
<rect width="7.8125" height="7.8125" rx="3.90625" transform="matrix(-1 0 0 1 27.0834 9.375)" fill="#9A7265"/>
<rect width="5.20833" height="5.20833" rx="2.60417" transform="matrix(-1 0 0 1 56.25 77.6041)" fill="#4C7380"/>
<rect width="13.0208" height="13.0208" rx="6.51042" transform="matrix(-1 0 0 1 42.1875 70.8334)" fill="#4C7380"/>
<rect width="13.0208" height="13.0208" rx="6.51042" transform="matrix(-1 0 0 1 48.6979 0)" fill="#659A6E"/>
</svg>
